# xmcd CD database file
#
# Track frame offsets:
#	150
#	16790
#	34401
#	50207
#	67750
#	83326
#	99869
#	116587
#	135054
#	149655
#	167236
#
# Disc length: 2461 seconds
#
# Revision: 0
# Processed by: cddbd v1.5.2PL0 Copyright (c) Steve Scherf et al.
# Submitted via: CDex 1.51
#
DISCID=86099b0b
DTITLE=Vassar, Phil - Phil Vassar
DYEAR=1900
DGENRE=Country
TTITLE0=Drive Away
TTITLE1=Just Another Day In Paradise
TTITLE2=That's When I Love You
TTITLE3=Rose Boquet
TTITLE4=Joe and Rosalita
TTITLE5=Six Pack Summer
TTITLE6=Lucky As Me
TTITLE7=Like I Never Loved Before
TTITLE8=Didn't You KNow She's Gone
TTITLE9=SOmewhere In Between
TTITLE10=Carlene
EXTD=
EXTT0=
EXTT1=
EXTT2=
EXTT3=
EXTT4=
EXTT5=
EXTT6=
EXTT7=
EXTT8=
EXTT9=
EXTT10=
PLAYORDER=
